<svg xmlns="http://www.w3.org/2000/svg" xmlns:xlink="http://www.w3.org/1999/xlink" version="1.1" x="0px" y="0px" viewBox="0 0 100 100" style="enable-background:new 0 0 100 100;" xml:space="preserve"><path d="M77.964,18.06v-2.87c0-1.452-1.182-2.634-2.634-2.634h-2.179c-1.452,0-2.634,1.182-2.634,2.634v2.813H53.547V15.19  c0-1.452-1.182-2.634-2.634-2.634h-2.178c-1.452,0-2.634,1.182-2.634,2.634v2.813H29.13V15.19c0-1.452-1.182-2.634-2.634-2.634  h-2.178c-1.452,0-2.634,1.182-2.634,2.634v2.92c-3.659,0.595-6.405,3.739-6.405,7.548v54.131c0,4.221,3.434,7.655,7.655,7.655  h54.131c4.221,0,7.655-3.435,7.655-7.655V25.658C84.721,21.741,81.763,18.507,77.964,18.06z M72.518,15.19  c0-0.35,0.284-0.634,0.634-0.634h2.179c0.35,0,0.634,0.284,0.634,0.634v7.624c0,0.35-0.284,0.634-0.634,0.634h-2.179  c-0.35,0-0.634-0.284-0.634-0.634V15.19z M48.101,15.19c0-0.35,0.284-0.634,0.634-0.634h2.178c0.35,0,0.634,0.284,0.634,0.634v7.624  c0,0.35-0.284,0.634-0.634,0.634h-2.178c-0.35,0-0.634-0.284-0.634-0.634V15.19z M23.685,15.19c0-0.35,0.284-0.634,0.634-0.634  h2.178c0.35,0,0.634,0.284,0.634,0.634v7.624c0,0.35-0.284,0.634-0.634,0.634h-2.178c-0.35,0-0.634-0.284-0.634-0.634V15.19z   M21.685,20.146v2.668c0,1.452,1.182,2.634,2.634,2.634h2.178c1.452,0,2.634-1.182,2.634-2.634v-2.812h16.971v2.812  c0,1.452,1.182,2.634,2.634,2.634h2.178c1.452,0,2.634-1.182,2.634-2.634v-2.812h16.971v2.812c0,1.452,1.182,2.634,2.634,2.634  h2.179c1.452,0,2.634-1.182,2.634-2.634v-2.733c2.692,0.433,4.757,2.765,4.757,5.577v9.731H17.279v-9.731  C17.279,22.958,19.146,20.713,21.685,20.146z M77.065,85.444H22.935c-3.118,0-5.655-2.537-5.655-5.655V37.389h65.441v42.399  C82.721,82.907,80.184,85.444,77.065,85.444z"></path><path d="M22.934,79.701h54.132V43.519H22.934V79.701z M24.934,68.307h11.033v9.394H24.934V68.307z M62.033,66.307H51v-9.394h11.033  V66.307z M64.033,56.914h11.033v9.394H64.033V56.914z M51,68.307h11.033v9.394H51V68.307z M49,77.701H37.967v-9.394H49V77.701z   M51,54.914v-9.395h11.033v9.395H51z M49,54.914H37.967v-9.395H49V54.914z M49,56.914v9.394H37.967v-9.394H49z M35.967,66.307  H24.934v-9.394h11.033V66.307z M64.033,77.701v-9.394h11.033v9.394H64.033z M75.066,54.914H64.033v-9.395h11.033V54.914z   M35.967,45.519v9.395H24.934v-9.395H35.967z"></path><circle cx="30.427" cy="50.293" r="3.333"></circle><circle cx="43.427" cy="50.293" r="3.333"></circle><circle cx="30.427" cy="61.61" r="3.333"></circle><circle cx="43.427" cy="61.61" r="3.333"></circle><circle cx="56.533" cy="50.293" r="3.333"></circle><circle cx="69.533" cy="50.293" r="3.333"></circle></svg>