<svg xmlns="http://www.w3.org/2000/svg" xmlns:xlink="http://www.w3.org/1999/xlink" version="1.1" x="0px" y="0px" viewBox="0 0 100 100" enable-background="new 0 0 100 100" xml:space="preserve"><path d="M94.297,87.489c-0.174-2.581-0.688-8.903-1.735-11.833c-1.351-3.787-3.015-5.489-5.097-6.878  c-1.023-0.683-4.824-2.123-10.503-4.242c-5.161-1.927-11.009-4.112-13.107-5.304c-1.894-1.078-3.355-6.043-3.311-7.594  c0.02-0.074,0.174-0.414,1.279-1.623c2.229-2.435,5.181-7.118,6.394-11.65c1.653-6.183,2.921-18.708-2.806-26.42  c-3.257-4.386-8.325-6.719-15.066-6.934L49.839,5l-0.175,0.011c-6.742,0.215-11.812,2.549-15.07,6.936  c-5.728,7.716-4.457,20.237-2.803,26.42c1.211,4.528,4.154,9.205,6.377,11.634c0.014,0.015,0.029,0.03,0.043,0.045  c0.002,0.003,0.005,0.006,0.008,0.009c0.327,0.358,1.093,1.197,1.257,1.659c0.59,1.664-1.554,6.51-3.323,7.518  c-2.094,1.191-7.945,3.375-13.18,5.33c-5.641,2.107-9.416,3.538-10.432,4.216c-2.081,1.387-3.744,3.087-5.096,6.876  C6.39,78.601,5.875,84.97,5.702,87.571l-0.048,0.724l0.526,0.5C7.711,90.25,15.397,95,50.003,95c34.328,0,42.203-4.8,43.799-6.27  l0.544-0.502L94.297,87.489z"></path></svg>