<svg xmlns="http://www.w3.org/2000/svg" xmlns:xlink="http://www.w3.org/1999/xlink" version="1.1" x="0px" y="0px" viewBox="0 0 233.764 237.183" style="enable-background:new 0 0 233.764 237.183;" xml:space="preserve"><g><rect x="95.957" y="165.238" width="35.14" height="4"></rect><rect x="157.097" y="165.238" width="37.667" height="4"></rect><rect x="219.097" y="165.238" width="14.667" height="4"></rect><path d="M108.953,82.324c-1.045,0.197-2.527,0.524-4.237,1.039c-3.138,0.938-7.033,2.523-10.441,5.018   c1.568,7.626,2.649,17.847,2.643,31.356c0.002,5.514-0.176,11.571-0.564,18.224c-0.258,4.409,3.109,8.193,7.52,8.451   c0.158,0.009,0.317,0.014,0.473,0.014c4.207,0,7.732-3.281,7.98-7.535c0.402-6.93,0.592-13.297,0.592-19.153   c-0.021-15.904-1.37-28.061-3.603-37.478C109.194,82.281,109.089,82.298,108.953,82.324z"></path><path d="M21.31,164.225l8.555-5.794l6-4.064v70.454c0,6.83,5.537,12.363,12.363,12.363c6.828,0,12.365-5.533,12.365-12.363v-79.247   h4.635v79.247c0,6.83,5.537,12.363,12.363,12.363c6.828,0,12.365-5.533,12.365-12.363v-98V107.88V74.859   c0.593,1.216,1.191,2.611,1.781,4.238c0.638,1.77,1.251,3.811,1.82,6.118c5.731-3.822,12.071-5.332,15.013-5.869   c-1.912-6.999-4.346-12.352-7.087-16.541c-3.286-4.985-7.129-8.185-10.68-9.956c-3.4-1.715-6.39-2.107-8.195-2.132   c-0.127-0.007-0.252-0.02-0.381-0.02h-2.901l6.958,8.786l-13.499-4.162l-8.75,12.75l4.536-17.374H57.249l4.536,17.374l-8.75-12.75   l-13.499,4.162l6.958-8.786h-2.9c-0.096,0-0.188,0.011-0.281,0.015c-2.968-0.047-9.602,1.259-15.415,7.558   c-4.213,4.521-7.941,11.175-10.637,21.078c2.946,0.539,9.275,2.05,14.998,5.866c1.098-4.424,2.357-7.807,3.606-10.365v33.03v0.59   l-4.827,3.269c-0.042,1.208-0.072,2.439-0.095,3.688l6.756-4.576l17.945,26.494l-33.533,22.711L4.168,133.563l6.88-4.659   c-0.037-1.206-0.063-2.389-0.084-3.567L0,132.762L21.31,164.225z"></path><rect x="39.156" y="119.306" transform="matrix(0.8194 -0.5733 0.5733 0.8194 -66.6474 46.3053)" width="2" height="19.212"></rect><path d="M31.059,128.912c0.039,1.218,0.087,2.451,0.142,3.696l6.635,9.501l1.641-1.144L31.059,128.912z"></path><path d="M21.474,146.426c0.157,0,0.317-0.004,0.477-0.014c4.411-0.26,7.778-4.045,7.519-8.455   c-0.391-6.649-0.566-12.709-0.566-18.221c0-9.813,0.561-17.895,1.475-24.508c0.343-2.499,0.737-4.778,1.167-6.862   c-5.266-3.857-11.715-5.49-14.678-6.041c-0.13-0.024-0.23-0.041-0.346-0.062c-0.772,3.261-1.445,6.827-1.992,10.77   c0,0.003,0,0.005-0.001,0.008h-0.002c-1.029,7.475-1.624,16.274-1.624,26.695c0,5.854,0.188,12.223,0.595,19.157   C13.746,143.145,17.27,146.426,21.474,146.426z"></path><path d="M175.823,102.982c5.019,0,8.588-7.994,10.018-11.843h-20.035C167.235,94.988,170.805,102.982,175.823,102.982z"></path><circle cx="175.823" cy="74.199" r="13.517"></circle><path d="M181.529,131.584h-11.413h-12.306h-5.719c-3.334,0-6.273,2.202-7.207,5.402l-8.512,29.139   c-1.164,3.98,1.121,8.15,5.102,9.314c3.982,1.162,8.152-1.123,9.314-5.103l6.932-23.733h12.396h11.413h12.395l6.934,23.733   c0.957,3.279,3.953,5.406,7.205,5.406c0.696,0,1.404-0.098,2.107-0.303c3.982-1.164,6.267-5.333,5.104-9.314l-8.512-29.139   c-0.936-3.2-3.874-5.402-7.208-5.402h-5.718H181.529z"></path><path d="M126.961,61.193c0.195,0,0.395-0.027,0.593-0.086l8.182-2.406c2.324,17.349,8.541,27.926,14.659,34.025   c3.437,3.439,6.75,5.431,9.181,6.564v20.997c5.21-10.585,2.849-27.416,2.332-30.629c-1.921-1.15-4.401-3.057-6.909-6.189   c-4.047-5.074-8.257-13.457-9.926-27.514l2.616-0.77h7.351c0.572,0,1.09-0.23,1.469-0.6l19.314-0.001h19.315   c0.379,0.371,0.896,0.601,1.47,0.601h7.35l2.827,0.832c-1.99,16.577-7.475,25.242-12.114,29.917   c-1.83,1.831-3.553,3.053-4.953,3.867c-0.558,3.529-2.786,20.048,2.355,30.489V99.393c2.448-1.114,5.861-3.125,9.398-6.666   c6.111-6.093,12.323-16.651,14.651-33.963l7.972,2.344c0.197,0.059,0.396,0.086,0.593,0.086c0.909,0,1.747-0.594,2.017-1.51   c0.328-1.114-0.311-2.283-1.424-2.611l-9.071-2.667c-0.564-1.739-2.095-3.081-4.03-3.295c-1.338-0.149-2.606,0.27-3.572,1.06   l-4.045-1.189h-7.953c-0.573,0-1.091,0.23-1.47,0.601h-18.113V19.238h-2.403V51.58h-18.112c-0.379-0.371-0.896-0.601-1.47-0.601   h-7.954l-3.881,1.141c-0.958-0.76-2.205-1.157-3.517-1.011c-1.908,0.212-3.416,1.52-4.001,3.222l-9.321,2.741   c-1.113,0.328-1.75,1.496-1.422,2.611C125.213,60.6,126.051,61.193,126.961,61.193z"></path><rect x="162.906" y="150.809" width="25.834" height="5.406"></rect><path d="M59.251,44.699C60.442,44.894,61.663,45,62.91,45c1.247,0,2.468-0.106,3.659-0.301c1.941-0.317,3.799-0.885,5.539-1.666   c0.281-0.126,0.561-0.257,0.836-0.395C80.333,38.95,85.41,31.32,85.41,22.5C85.41,10.073,75.338,0,62.91,0   c-12.426,0-22.5,10.073-22.5,22.5c0,8.82,5.078,16.45,12.467,20.139c0.275,0.137,0.555,0.269,0.837,0.395   C55.454,43.814,57.31,44.382,59.251,44.699z"></path></g></svg>