<svg xmlns="http://www.w3.org/2000/svg" viewBox="0 0 38 41"><defs><style>.a{fill:#191919;font-size:6px;font-family:Lato-Bold, Lato;font-weight:700;}</style></defs><g transform="translate(-12 -624)"><text class="a" transform="translate(31 664)"><tspan x="-18.882" y="0">DASHBOARD</tspan></text><path d="M15,30A15,15,0,1,1,30,15,15.018,15.018,0,0,1,15,30ZM15,1.25A13.75,13.75,0,1,0,28.75,15,13.765,13.765,0,0,0,15,1.25ZM15,17.5A2.5,2.5,0,1,1,17.5,15,2.5,2.5,0,0,1,15,17.5Zm0-3.75A1.25,1.25,0,1,0,16.25,15,1.251,1.251,0,0,0,15,13.75Zm1.326.549a.625.625,0,0,1-.442-1.067l6.187-6.187a.625.625,0,1,1,.884.884l-6.187,6.187A.625.625,0,0,1,16.326,14.3Zm-10.7,1.326h-2.5a.625.625,0,0,1,0-1.25h2.5a.625.625,0,0,1,0,1.25Zm-1.6,4.544a.625.625,0,0,1-.239-1.2l2.31-.956a.625.625,0,1,1,.477,1.155l-2.31.956A.633.633,0,0,1,4.029,20.169Zm21.941,0a.621.621,0,0,1-.239-.047l-2.309-.957A.625.625,0,0,1,23.9,18.01l2.309.957a.625.625,0,0,1-.24,1.2Zm.9-4.544h-2.5a.625.625,0,0,1,0-1.25h2.5a.625.625,0,0,1,0,1.25Zm-3.213-3.588a.625.625,0,0,1-.239-1.2l2.309-.956a.625.625,0,1,1,.478,1.155L23.9,11.99A.63.63,0,0,1,23.661,12.037ZM18.588,6.964a.625.625,0,0,1-.577-.864l.957-2.309a.625.625,0,1,1,1.155.479l-.957,2.309A.628.628,0,0,1,18.588,6.964ZM15,6.25h0a.625.625,0,0,1-.625-.625v-2.5A.625.625,0,0,1,15,2.5h0a.625.625,0,0,1,.625.625v2.5A.625.625,0,0,1,15,6.25Zm-3.588.714a.624.624,0,0,1-.577-.386L9.879,4.269a.625.625,0,0,1,1.155-.479L11.99,6.1a.625.625,0,0,1-.578.864ZM8.371,9a.626.626,0,0,1-.443-.183L6.162,7.045a.625.625,0,0,1,.884-.884L8.813,7.929A.625.625,0,0,1,8.371,9ZM6.339,12.037A.626.626,0,0,1,6.1,11.99L3.79,11.032a.625.625,0,1,1,.479-1.155l2.309.958a.625.625,0,0,1-.239,1.2ZM20.625,25H9.375a.625.625,0,0,1-.625-.625v-3.75A.625.625,0,0,1,9.375,20h11.25a.625.625,0,0,1,.625.625v3.75A.625.625,0,0,1,20.625,25ZM10,23.75H20v-2.5H10Z" transform="translate(16 624)"/></g></svg>