<svg xmlns="http://www.w3.org/2000/svg" viewBox="0 0 30 41"><defs><style>.a{fill:#191919;font-size:6px;font-family:Lato-Bold, Lato;font-weight:700;}</style></defs><g transform="translate(-73 -624)"><text class="a" transform="translate(88 664)"><tspan x="-11.286" y="0">EVENTS</tspan></text><g transform="translate(61.6 611.7)"><path d="M41.4,19.223a3.933,3.933,0,0,0-3.886-3.979H35.532V13.1a.777.777,0,1,0-1.554,0v2.149H18.822V13.1a.777.777,0,1,0-1.554,0v2.149H15.286A3.933,3.933,0,0,0,11.4,19.223v19.1A3.933,3.933,0,0,0,15.286,42.3H37.514A3.933,3.933,0,0,0,41.4,38.321ZM15.286,16.836h1.982v1.512a.777.777,0,1,0,1.554,0V16.836H33.978v1.512a.777.777,0,1,0,1.554,0V16.836h1.982a2.36,2.36,0,0,1,2.332,2.387v2.944H12.954V19.223A2.36,2.36,0,0,1,15.286,16.836ZM37.514,40.708H15.286a2.36,2.36,0,0,1-2.332-2.387V23.759H39.846V38.321A2.36,2.36,0,0,1,37.514,40.708Z" transform="translate(0 0)"/><path d="M45.769,51.879l-6.917,6.247L35.744,54.9a.764.764,0,0,0-1.016.074.81.81,0,0,0-.072,1.04l3.575,3.78a.768.768,0,0,0,.583.239.92.92,0,0,0,.505-.2l7.5-6.764a.891.891,0,0,0,.078-1.154A.8.8,0,0,0,45.769,51.879Z" transform="translate(-14.123 -23.704)"/></g></g></svg>