<svg xmlns="http://www.w3.org/2000/svg" viewBox="0 0 38 42"><defs><style>.a{fill:#191919;font-size:6px;font-family:Lato-Bold, Lato;font-weight:700;}</style></defs><g transform="translate(-314 -624)"><text class="a" transform="translate(333 665)"><tspan x="-18.297" y="0">MEAL PLANS</tspan></text><g transform="translate(311 617.001)"><g transform="translate(7 6.999)"><path d="M36.4,21.4H31.332L36.946,9.048a.6.6,0,1,0-1.092-.5L30.014,21.4H27.508L29.792,7.7a.6.6,0,1,0-1.183-.2L26.292,21.4H7.6A.6.6,0,0,0,7,22v1.2A10.211,10.211,0,0,0,17.2,33.4h9.6A10.211,10.211,0,0,0,37,23.2V22A.6.6,0,0,0,36.4,21.4Zm-.6,1.8a9.01,9.01,0,0,1-9,9H17.2a9.01,9.01,0,0,1-9-9v-.6H35.8Z" transform="translate(-7 -6.999)"/><path d="M35.2,55H13.6a.6.6,0,1,0,0,1.2H35.2a.6.6,0,1,0,0-1.2Z" transform="translate(-9.4 -26.2)"/><path d="M13.6,24.6a.6.6,0,0,0,.6-.6V21.6a.6.6,0,0,0-1.2,0V24A.6.6,0,0,0,13.6,24.6Z" transform="translate(-9.4 -12.6)"/><path d="M21.6,23a.6.6,0,0,0,.6-.6V17.6a.6.6,0,0,0-1.2,0v4.8A.6.6,0,0,0,21.6,23Z" transform="translate(-12.6 -11)"/><path d="M29.6,24.6a.6.6,0,0,0,.6-.6V21.6a.6.6,0,0,0-1.2,0V24A.6.6,0,0,0,29.6,24.6Z" transform="translate(-15.8 -12.6)"/></g></g></g></svg>