<svg xmlns="http://www.w3.org/2000/svg" xmlns:xlink="http://www.w3.org/1999/xlink" version="1.1" x="0px" y="0px" viewBox="0 0 100 100" enable-background="new 0 0 100 100" xml:space="preserve"><g><path d="M37.873,40.692c0-6.296-5.123-11.417-11.418-11.417c-6.294,0-11.415,5.121-11.415,11.417c0,4.015,2.088,7.545,5.229,9.581   c-6.538,2.311-11.465,8.161-12.561,15.301h3.029c1.383-7.6,7.899-13.375,15.719-13.375v-0.09   C32.752,52.107,37.873,46.987,37.873,40.692z M26.455,49.109c-4.64,0-8.415-3.776-8.415-8.417c0-4.642,3.775-8.417,8.415-8.417   c4.643,0,8.418,3.775,8.418,8.417C34.873,45.333,31.098,49.109,26.455,49.109z"></path><path d="M79.73,50.273c3.143-2.036,5.23-5.566,5.23-9.581c0-6.296-5.121-11.417-11.416-11.417s-11.418,5.121-11.418,11.417   c0,6.295,5.121,11.416,11.416,11.417v0.09c7.82,0,14.336,5.775,15.719,13.375h3.029C91.195,58.434,86.269,52.584,79.73,50.273z    M73.545,49.109c-4.643,0-8.418-3.776-8.418-8.417c0-4.642,3.775-8.417,8.418-8.417c4.641,0,8.416,3.775,8.416,8.417   C81.961,45.333,78.186,49.109,73.545,49.109z"></path><path d="M56.186,55.424c3.144-2.037,5.231-5.566,5.231-9.581c0-6.296-5.123-11.417-11.418-11.417s-11.416,5.121-11.416,11.417   c0,4.015,2.088,7.544,5.229,9.581c-6.537,2.313-11.465,8.16-12.561,15.301h3.029C35.664,63.125,42.18,57.35,50,57.35   s14.337,5.775,15.719,13.375h3.029C67.652,63.584,62.725,57.734,56.186,55.424z M49.999,54.26c-4.642,0-8.416-3.777-8.416-8.417   c0-4.642,3.774-8.417,8.416-8.417c4.644,0,8.418,3.775,8.418,8.417C58.417,50.484,54.643,54.26,49.999,54.26z"></path></g></svg>