<svg xmlns="http://www.w3.org/2000/svg" viewBox="0 0 46 41"><defs><style>.a{fill:#191919;font-size:6px;font-family:Lato-Bold, Lato;font-weight:700;}</style></defs><g transform="translate(-130 -624)"><text class="a" transform="translate(153 664)"><tspan x="-22.096" y="0">SHOPPING LIST</tspan></text><path d="M24.348,15a.429.429,0,0,0-.228.121l-6,6a.429.429,0,0,0-.121.308V42.856A2.148,2.148,0,0,0,20.143,45H39a2.148,2.148,0,0,0,2.143-2.143V39.428a.429.429,0,1,0-.857,0v3.429A1.274,1.274,0,0,1,39,44.142H20.143a1.274,1.274,0,0,1-1.286-1.286V22.285h6a.429.429,0,0,0,.429-.429v-6H39a1.274,1.274,0,0,1,1.286,1.286v5.866c-.11.046-.214.1-.321.161A3.592,3.592,0,0,0,38.45,24.7a6.458,6.458,0,0,0-1.286-1.848.426.426,0,1,0-.616.589,5.127,5.127,0,0,1,1.58,3.643,3.419,3.419,0,0,0-1.674-.469c-2.649,0-4.741,2.416-4.741,5.33s2.092,5.344,4.741,5.344a4.531,4.531,0,0,0,2.116-.4,4.531,4.531,0,0,0,2.116.4c2.649,0,4.741-2.429,4.741-5.344a5.124,5.124,0,0,0-4.286-5.3v-.79c.11-.046.215-.1.321-.161a3.531,3.531,0,0,0,1.808-2.29.429.429,0,0,0-.295-.522,4.118,4.118,0,0,0-1.513-.147c-.106.009-.216.022-.321.04V17.142A2.148,2.148,0,0,0,39,15H24.348Zm.08,1.045v5.384H19.044Zm17.116,7.54a3.178,3.178,0,0,1,.683.067,2.634,2.634,0,0,1-1.165,1.272A3.089,3.089,0,0,1,39.2,25.2a2.621,2.621,0,0,1,1.165-1.272A3.08,3.08,0,0,1,41.544,23.584Zm-20.2,1.272a.43.43,0,1,0,.08.857H34.285a.429.429,0,1,0,0-.857H21.348Zm17.531,1.232a4.075,4.075,0,0,0,1.406,0v.549a3.576,3.576,0,0,0-1.3.455A7.208,7.208,0,0,0,38.879,26.088Zm-2.424,1.379a2.978,2.978,0,0,1,1.835.71.429.429,0,0,0,.562,0,2.978,2.978,0,0,1,1.835-.71,4.2,4.2,0,0,1,3.884,4.473,4.214,4.214,0,0,1-3.884,4.487,3.45,3.45,0,0,1-1.888-.348.429.429,0,0,0-.455,0,3.45,3.45,0,0,1-1.888.348,4.214,4.214,0,0,1-3.884-4.487A4.2,4.2,0,0,1,36.455,27.468ZM21.348,28.713a.43.43,0,1,0,.08.857H30a.429.429,0,1,0,0-.857H21.348Zm0,3.429a.43.43,0,1,0,.08.857H30a.429.429,0,1,0,0-.857H21.348Zm0,3.857a.43.43,0,1,0,.08.857H30A.429.429,0,1,0,30,36H21.348Z" transform="translate(121 609.001)"/></g></svg>