<svg xmlns="http://www.w3.org/2000/svg" viewBox="0 0 50 41"><defs><style>.a{fill:#191919;font-size:6px;font-family:Lato-Bold, Lato;font-weight:700;}</style></defs><g transform="translate(-189 -624)"><text class="a" transform="translate(214 664)"><tspan x="-24.577" y="0">TRAINING PLANS</tspan></text><g transform="translate(193.603 623)"><g transform="translate(9.397 1)"><path d="M31.173,4.215H25.949V2.823a.352.352,0,0,0-.352-.352H22.5a1.95,1.95,0,0,0-3.78,0h-3.4a.352.352,0,0,0-.352.352V4.215H9.749a.352.352,0,0,0-.352.352V30.648A.352.352,0,0,0,9.749,31H31.173a.352.352,0,0,0,.352-.352V4.566A.352.352,0,0,0,31.173,4.215ZM20.614,1.7a1.256,1.256,0,1,1-1.256,1.256A1.257,1.257,0,0,1,20.614,1.7ZM18.676,3.175a1.948,1.948,0,0,0,3.875,0h2.694V5.152a.8.8,0,0,1-.8.8H16.477a.8.8,0,0,1-.8-.8V3.175ZM30.822,30.3H10.1V4.918h4.873a1.53,1.53,0,0,0,1.5,1.738h7.968a1.528,1.528,0,0,0,1.5-1.738h4.873V30.3Z" transform="translate(-9.397 -1)"/></g><g transform="translate(17.958 10.269)"><path d="M28.012,20.774a.352.352,0,0,0,0,.7h10.41a.352.352,0,0,0,0-.7Z" transform="translate(-27.66 -20.774)"/></g><g transform="translate(11.851 8.343)"><path d="M18.835,16.666H14.984a.352.352,0,0,0-.352.352v3.851a.352.352,0,0,0,.352.352h3.851a.352.352,0,0,0,.352-.352V17.018A.352.352,0,0,0,18.835,16.666Zm-.352,3.851H15.335V17.369h3.148Z" transform="translate(-14.632 -16.666)"/></g><g transform="translate(13.181 9.853)"><path d="M17.932,21.318a.351.351,0,0,0,.5,0l.831-.831a.352.352,0,0,0-.5-.5l-.582.582-.11-.11a.352.352,0,1,0-.5.5Z" transform="translate(-17.47 -19.887)"/></g><g transform="translate(17.958 17.256)"><path d="M38.422,35.679H28.012a.352.352,0,0,0,0,.7h10.41a.352.352,0,0,0,0-.7Z" transform="translate(-27.66 -35.679)"/></g><g transform="translate(11.851 15.33)"><path d="M18.835,31.571H14.984a.352.352,0,0,0-.352.352v3.851a.352.352,0,0,0,.352.352h3.851a.352.352,0,0,0,.352-.352V31.923A.352.352,0,0,0,18.835,31.571Zm-.352,3.851H15.335V32.274h3.148Z" transform="translate(-14.632 -31.571)"/></g><g transform="translate(13.181 16.841)"><path d="M17.932,36.224a.352.352,0,0,0,.5,0l.831-.831a.352.352,0,1,0-.5-.5l-.582.582-.11-.11a.352.352,0,1,0-.5.5Z" transform="translate(-17.47 -34.793)"/></g><g transform="translate(17.958 24.242)"><path d="M38.422,50.584H28.012a.352.352,0,0,0,0,.7h10.41a.352.352,0,0,0,0-.7Z" transform="translate(-27.66 -50.584)"/></g><g transform="translate(11.851 22.317)"><path d="M18.835,46.476H14.984a.352.352,0,0,0-.352.352v3.851a.352.352,0,0,0,.352.352h3.851a.352.352,0,0,0,.352-.352V46.828A.352.352,0,0,0,18.835,46.476Zm-.352,3.851H15.335V47.179h3.148Z" transform="translate(-14.632 -46.476)"/></g><g transform="translate(13.181 23.827)"><path d="M17.932,51.128a.351.351,0,0,0,.5,0l.831-.831a.352.352,0,1,0-.5-.5l-.582.582-.11-.11a.352.352,0,0,0-.5.5Z" transform="translate(-17.47 -49.697)"/></g></g></g></svg>